<svg xmlns="http://www.w3.org/2000/svg" width="512" height="512" viewBox="0 0 512 512">
  <defs>
    <linearGradient id="g" x1="0" y1="0" x2="1" y2="1">
      <stop offset="0" stop-color="#60a5fa" />
      <stop offset="1" stop-color="#22c55e" />
    </linearGradient>
  </defs>
  <rect width="512" height="512" rx="116" fill="#0b1220" />
  <path d="M150 104h212c16 0 30 14 30 30v226c0 16-14 30-30 30H150c-16 0-30-14-30-30V134c0-16 14-30 30-30Z" fill="url(#g)" opacity="0.18"/>
  <path d="M200 132h112l-14 66h-84l-14-66Z" fill="url(#g)"/>
  <path d="M184 200h144l-20 160c-2 14-14 24-28 24h-48c-14 0-26-10-28-24l-20-160Z" fill="url(#g)" opacity="0.95"/>
  <circle cx="232" cy="260" r="18" fill="#0b1220" opacity="0.85"/>
  <circle cx="292" cy="292" r="14" fill="#0b1220" opacity="0.85"/>
  <circle cx="256" cy="330" r="10" fill="#0b1220" opacity="0.85"/>
  <path d="M164 420h184" stroke="#93c5fd" stroke-width="10" stroke-linecap="round" opacity="0.8"/>
</svg>

